<svg xmlns="http://www.w3.org/2000/svg" viewBox="0 0 800 1000" preserveAspectRatio="xMidYMid slice">
  <defs>
    <linearGradient id="g" x1="0" y1="0" x2="1" y2="1">
      <stop offset="0" stop-color="#efece6"/>
      <stop offset="1" stop-color="#cbc6bc"/>
    </linearGradient>
    <radialGradient id="a" cx="0.25" cy="0.18" r="0.8">
      <stop offset="0" stop-color="#d9d4ca"/>
      <stop offset="1" stop-color="#d9d4ca" stop-opacity="0"/>
    </radialGradient>
  </defs>
  <rect width="800" height="1000" fill="url(#g)"/>
  <rect width="800" height="1000" fill="url(#a)"/>

  <!-- Browser window (desktop) -->
  <g>
    <rect x="96" y="190" width="470" height="360" rx="16" fill="#f6f4f1" stroke="#67645c" stroke-opacity="0.28" stroke-width="2"/>
    <line x1="96" y1="246" x2="566" y2="246" stroke="#67645c" stroke-opacity="0.28" stroke-width="2"/>
    <circle cx="124" cy="218" r="6" fill="#67645c" fill-opacity="0.3"/>
    <circle cx="146" cy="218" r="6" fill="#67645c" fill-opacity="0.3"/>
    <circle cx="168" cy="218" r="6" fill="#67645c" fill-opacity="0.3"/>
    <rect x="220" y="210" width="320" height="16" rx="8" fill="#67645c" fill-opacity="0.12"/>
    <rect x="124" y="286" width="220" height="22" rx="11" fill="#0e0e0c" fill-opacity="0.82"/>
    <rect x="124" y="324" width="330" height="12" rx="6" fill="#67645c" fill-opacity="0.16"/>
    <rect x="124" y="348" width="300" height="12" rx="6" fill="#67645c" fill-opacity="0.16"/>
    <rect x="124" y="392" width="140" height="40" rx="20" fill="#2a4bff" fill-opacity="0.55"/>
    <rect x="124" y="470" width="190" height="56" rx="10" fill="#67645c" fill-opacity="0.1"/>
    <rect x="332" y="470" width="208" height="56" rx="10" fill="#67645c" fill-opacity="0.08"/>
  </g>

  <!-- Phone (mobile), overlapping bottom-right -->
  <g>
    <rect x="500" y="470" width="210" height="380" rx="34" fill="#0e0e0c"/>
    <rect x="512" y="482" width="186" height="356" rx="26" fill="#f6f4f1"/>
    <rect x="565" y="496" width="80" height="10" rx="5" fill="#0e0e0c" fill-opacity="0.5"/>
    <rect x="532" y="532" width="146" height="84" rx="12" fill="#2a4bff" fill-opacity="0.5"/>
    <rect x="532" y="634" width="120" height="14" rx="7" fill="#67645c" fill-opacity="0.22"/>
    <rect x="532" y="660" width="146" height="10" rx="5" fill="#67645c" fill-opacity="0.16"/>
    <rect x="532" y="678" width="130" height="10" rx="5" fill="#67645c" fill-opacity="0.16"/>
    <rect x="532" y="712" width="146" height="40" rx="10" fill="#67645c" fill-opacity="0.12"/>
    <rect x="532" y="762" width="146" height="40" rx="10" fill="#67645c" fill-opacity="0.1"/>
  </g>
</svg>
