<svg width="29" height="29" viewBox="0 0 29 29" fill="none" xmlns="http://www.w3.org/2000/svg">
<g clip-path="url(#clip0_26_24)">
<path d="M10.041 12.0807L11.1278 15.4841H7.58072L8.64681 12.0807C8.89297 11.2605 9.09784 10.2969 9.303 9.49722H9.344C9.54893 10.2969 9.77459 11.24 10.041 12.0807ZM21.1733 12.8187C19.615 12.8187 18.959 14.2334 18.8563 15.2584H23.244C23.2647 14.336 22.8547 12.8187 21.1733 12.8187ZM28.9717 4.85223V24.1478C28.9717 26.801 26.8009 28.9717 24.1478 28.9717H4.85223C2.19907 28.9717 0.0283203 26.8009 0.0283203 24.1478V4.85223C0.0283203 2.19907 2.19907 0.0283203 4.85223 0.0283203H24.1478C26.8009 0.0283203 28.9717 2.19907 28.9717 4.85223ZM15.5155 21.3072L11.0253 7.48795H7.80621L3.37748 21.3072H5.98142L7.1707 17.3911H11.5584L12.8091 21.3072H15.5155ZM25.6225 15.9556C25.6225 13.7619 24.5562 11.0964 21.3168 11.0964C18.1183 11.0964 16.4371 13.7003 16.4371 16.4682C16.4371 19.5232 18.3438 21.5121 21.5834 21.5121C23.0186 21.5121 24.2078 21.2454 25.069 20.8969L24.6998 19.1543C23.9411 19.4412 23.1005 19.6051 21.9318 19.6051C20.3327 19.6051 18.918 18.8262 18.8563 17.0218H25.5405C25.5815 16.7963 25.6225 16.4272 25.6225 15.9556Z" fill="white"/>
</g>
<defs>
<clipPath id="clip0_26_24">
<rect width="29" height="29" fill="white"/>
</clipPath>
</defs>
</svg>
