<svg width="29" height="29" viewBox="0 0 29 29" fill="none" xmlns="http://www.w3.org/2000/svg">
<g clip-path="url(#clip0_26_21)">
<path d="M12.891 12.3471L13.9778 15.7507H10.4306L11.4969 12.3471C11.743 11.527 11.9479 10.5634 12.1529 9.76371H12.1939C12.399 10.5634 12.6244 11.5065 12.891 12.3471ZM28.9717 4.85223V24.1478C28.9717 26.801 26.8009 28.9717 24.1478 28.9717H4.85223C2.19907 28.9717 0.0283203 26.8009 0.0283203 24.1478V4.85223C0.0283203 2.19907 2.19907 0.0283203 4.85223 0.0283203H24.1478C26.8009 0.0283203 28.9717 2.19907 28.9717 4.85223ZM18.3655 21.5736L13.8751 7.75455H10.6562L6.22752 21.5736H8.83146L10.0207 17.6574H14.4084L15.6592 21.5736H18.3655ZM22.6291 11.5885H20.0866V21.5736H22.6291V11.5885ZM22.7725 8.80014C22.752 8.02099 22.219 7.42649 21.3578 7.42649C20.5171 7.42649 19.9431 8.02099 19.9431 8.80014C19.9431 9.55884 20.4966 10.1533 21.3373 10.1533C22.2189 10.1533 22.7725 9.55878 22.7725 8.80014Z" fill="white"/>
</g>
<defs>
<clipPath id="clip0_26_21">
<rect width="29" height="29" fill="white"/>
</clipPath>
</defs>
</svg>
