<svg width="39" height="32" viewBox="0 0 39 32" fill="none" xmlns="http://www.w3.org/2000/svg">
<path fill-rule="evenodd" clip-rule="evenodd" d="M35.1 0H3.9C2.86566 0 1.87368 0.561903 1.14228 1.5621C0.410891 2.56229 0 3.91885 0 5.33333V26.6667C0 28.0812 0.410891 29.4377 1.14228 30.4379C1.87368 31.4381 2.86566 32 3.9 32H35.1C36.1343 32 37.1263 31.4381 37.8577 30.4379C38.5891 29.4377 39 28.0812 39 26.6667V5.33333C39 3.91885 38.5891 2.56229 37.8577 1.5621C37.1263 0.561903 36.1343 0 35.1 0ZM14.2155 23.4667L13.65 20.6133H10.062L9.4965 23.4667H6.1815L9.75 8.18667H13.8255L17.55 23.4667H14.2155ZM26.5785 15.0933C26.4382 15.7254 26.1986 16.3078 25.8765 16.8C25.5102 17.319 25.0639 17.7199 24.57 17.9733C23.9462 18.2885 23.2849 18.4422 22.62 18.4267H21.762V23.4667H18.72V8.24H22.62C23.7487 8.12855 24.8692 8.57313 25.779 9.49333C26.1451 9.94348 26.4319 10.5013 26.6176 11.1249C26.8034 11.7484 26.8834 12.4214 26.8515 13.0933C26.8404 13.7758 26.7482 14.4513 26.5785 15.0933ZM31.6095 23.4667H28.587V8.24H31.6095V23.4667ZM12.5775 14.7467L13.0455 17.2267H10.686L11.154 14.7467C11.154 14.4 11.31 14 11.388 13.4933C11.466 12.9867 11.5635 12.48 11.6415 11.9733C11.723 11.5517 11.7881 11.1244 11.8365 10.6933C11.8365 11.04 11.973 11.4667 12.051 12.0267L12.3435 13.5733L12.5775 14.7467ZM23.478 12.08C23.5853 12.2311 23.6684 12.4111 23.7221 12.6085C23.7758 12.8059 23.7989 13.0164 23.79 13.2267C23.8008 13.6208 23.7262 14.0104 23.5755 14.3467C23.4472 14.6102 23.2637 14.8147 23.049 14.9333C22.8208 15.0644 22.5749 15.128 22.3275 15.12H21.723V11.5733H22.503C22.6671 11.5631 22.831 11.5979 22.9851 11.6757C23.1392 11.7536 23.2802 11.8729 23.4 12.0267L23.478 12.08Z" fill="white"/>
</svg>
