<svg width="20" height="20" viewBox="0 0 20 20" fill="none" xmlns="http://www.w3.org/2000/svg">
<path d="M12.9167 14.0834L14.0833 12.9167C14.1667 12.8334 14.2083 12.7361 14.2083 12.625C14.2083 12.5139 14.1667 12.4167 14.0833 12.3334L11.25 9.47919C11.3056 9.32641 11.3472 9.17363 11.375 9.02085C11.4028 8.86808 11.4167 8.69446 11.4167 8.50002C11.4167 7.70835 11.1354 7.03127 10.5729 6.46877C10.0104 5.90627 9.33333 5.62502 8.54166 5.62502C8.30555 5.62502 8.06944 5.65627 7.83333 5.71877C7.59722 5.78127 7.36805 5.86808 7.14583 5.97919L9.10416 7.93752L7.9375 9.10419L5.97916 7.14585C5.86805 7.36808 5.78125 7.59724 5.71875 7.83335C5.65625 8.06946 5.625 8.30558 5.625 8.54169C5.625 9.33335 5.90625 10.0104 6.46875 10.5729C7.03125 11.1354 7.70833 11.4167 8.5 11.4167C8.68055 11.4167 8.85069 11.4028 9.01041 11.375C9.17014 11.3472 9.32639 11.3056 9.47916 11.25L12.3333 14.0834C12.4167 14.1667 12.5139 14.2084 12.625 14.2084C12.7361 14.2084 12.8333 14.1667 12.9167 14.0834ZM10 18.3334C8.84722 18.3334 7.76389 18.1146 6.75 17.6771C5.73611 17.2396 4.85416 16.6459 4.10416 15.8959C3.35416 15.1459 2.76041 14.2639 2.32291 13.25C1.88541 12.2361 1.66666 11.1528 1.66666 10C1.66666 8.84724 1.88541 7.76391 2.32291 6.75002C2.76041 5.73613 3.35416 4.85419 4.10416 4.10419C4.85416 3.35419 5.73611 2.76044 6.75 2.32294C7.76389 1.88544 8.84722 1.66669 10 1.66669C11.1528 1.66669 12.2361 1.88544 13.25 2.32294C14.2639 2.76044 15.1458 3.35419 15.8958 4.10419C16.6458 4.85419 17.2396 5.73613 17.6771 6.75002C18.1146 7.76391 18.3333 8.84724 18.3333 10C18.3333 11.1528 18.1146 12.2361 17.6771 13.25C17.2396 14.2639 16.6458 15.1459 15.8958 15.8959C15.1458 16.6459 14.2639 17.2396 13.25 17.6771C12.2361 18.1146 11.1528 18.3334 10 18.3334Z" fill="white"/>
</svg>
