<svg width="30" height="30" viewBox="0 0 30 30" fill="none" xmlns="http://www.w3.org/2000/svg">
<path d="M29.6146 0L27.1191 27.0301L16.3071 29.9413L5.49498 27.0301L3 0H29.6146ZM24.586 5.49615H16.2974H7.86193L8.26535 8.76029H16.2974H16.7486L16.2974 8.94809L8.55891 12.1711L8.81555 15.3617L16.2974 15.386L20.3074 15.3987L20.0507 19.6529L16.2973 20.7097V20.7063L16.2666 20.7149L12.6417 19.7998L12.4218 17.159H12.4097H9.04752H9.03568L9.47578 22.2571L16.2974 24.2744V24.2708L16.3097 24.2744L23.0948 22.2938L23.975 12.1711H16.2974H16.2785L16.2974 12.1629L24.2562 8.76029L24.586 5.49615Z" fill="white"/>
</svg>
