<svg width="216" height="275" viewBox="0 0 216 275" fill="none" xmlns="http://www.w3.org/2000/svg">
<path d="M106.546 253V229C106.546 222.373 101.173 217 94.5456 217H22C15.3726 217 10 211.627 10 205V22C10 15.3726 15.3726 10 22 10H193.769C200.396 10 205.769 15.3726 205.769 22V253C205.769 259.627 200.396 265 193.769 265H118.546C111.918 265 106.546 259.627 106.546 253Z" stroke="white" stroke-width="20"/>
<path d="M109.87 86H132C136.418 86 140 89.5817 140 94V131.041C140 135.459 136.418 139.041 132 139.041H77M77 139.041L93.4348 117.781M77 139.041L93.4348 162" stroke="white" stroke-width="12"/>
</svg>
