<svg width="36" height="36" viewBox="0 0 36 36" fill="none" xmlns="http://www.w3.org/2000/svg">
<path fill-rule="evenodd" clip-rule="evenodd" d="M13.0005 14.125C10.8603 14.125 9.12548 15.8596 9.12548 17.9997C9.12548 20.1399 10.8604 21.8748 13.0005 21.8748H16.8754V18.0779C16.8751 18.0519 16.875 18.0258 16.875 17.9997C16.875 17.9737 16.8751 17.9476 16.8754 17.9217V14.125H13.0005ZM16.8754 11.875H13.0005C10.8604 11.875 9.12548 10.1401 9.12548 8C9.12548 5.8599 10.8604 4.125 13.0005 4.125H16.8754V11.875ZM19.1254 4.125V11.8749L22.9995 11.8748C25.1395 11.8748 26.875 10.14 26.875 8C26.875 5.8599 25.1401 4.125 22.9999 4.125H19.1254ZM22.9996 14.1248C20.8804 14.125 19.1586 15.8263 19.1254 17.9376V18.0618C19.1586 20.1733 20.8806 21.8748 22.9999 21.8748C25.1401 21.8748 26.875 20.1399 26.875 17.9997C26.875 15.8596 25.1397 14.1248 22.9996 14.1248ZM13.0005 24.1248C10.8604 24.1248 9.12524 25.86 9.12524 28.0002C9.12524 30.1404 10.8601 31.8753 13.0002 31.8753C15.1404 31.8753 16.8753 30.1404 16.8753 28.0002L16.8754 24.1248H13.0005Z" fill="white"/>
</svg>
