<svg width="17" height="17" viewBox="0 0 17 17" fill="none" xmlns="http://www.w3.org/2000/svg">
<path d="M13.2255 1.86054C13.1487 1.67509 13.0003 1.53321 12.8179 1.4707L12.8166 1.47025L12.8153 1.4698L12.8126 1.4689L12.807 1.46706L12.7951 1.4633C12.7867 1.46075 12.7776 1.45815 12.7679 1.45554C12.7483 1.45031 12.7259 1.44505 12.7008 1.44018C12.6503 1.43042 12.5891 1.42225 12.5168 1.41865C12.3718 1.41142 12.186 1.42275 11.9579 1.47372C11.5775 1.55871 11.0837 1.75287 10.4638 2.15072C10.4233 2.17673 10.3822 2.2036 10.3406 2.23137C10.299 2.22106 10.2573 2.2111 10.2156 2.20151C9.08516 1.94143 7.91506 1.94143 6.7846 2.20151C6.74286 2.21111 6.70118 2.22106 6.65956 2.23138C6.61795 2.2036 6.57687 2.17673 6.53632 2.15072C5.91574 1.75267 5.42081 1.55854 5.03948 1.47361C4.81085 1.42271 4.62465 1.41144 4.4795 1.41864C4.40715 1.42222 4.34588 1.43035 4.29553 1.44004C4.2704 1.44488 4.2481 1.45008 4.22863 1.45525C4.2189 1.45784 4.20988 1.46042 4.20157 1.46293L4.18966 1.46665L4.18411 1.46846L4.18144 1.46935L4.18012 1.46979L4.17883 1.47023C3.99485 1.53282 3.84538 1.67608 3.76868 1.86335C3.48299 2.56091 3.40716 3.33012 3.54475 4.06801C3.55144 4.10385 3.55863 4.13963 3.56632 4.17533C3.53682 4.21723 3.50816 4.2597 3.48035 4.3027C3.0513 4.96605 2.82309 5.75727 2.83378 6.56975C2.83481 8.30982 3.34309 9.50152 4.20269 10.2684C4.68927 10.7024 5.25402 10.9681 5.8216 11.1356C5.88655 11.1548 5.95154 11.1726 6.01645 11.1893C6.00697 11.2223 5.99814 11.2555 5.98996 11.2889C5.95559 11.4295 5.9328 11.5737 5.92226 11.7202C5.9213 11.7334 5.9207 11.7467 5.92046 11.7599L5.89642 13.0482L5.89629 13.0622C5.89629 13.0662 5.89629 13.0702 5.89629 13.0742C5.85269 13.085 5.80837 13.0931 5.76358 13.0982C5.62559 13.1142 5.48581 13.1025 5.35224 13.0641C5.21866 13.0256 5.09382 12.961 4.98491 12.8739C4.87601 12.7868 4.78517 12.6787 4.71772 12.556L4.71077 12.5437C4.52509 12.2212 4.26861 11.9453 3.96059 11.7367C3.65257 11.5281 3.30112 11.3926 2.93284 11.3404C2.5455 11.2855 2.187 11.5549 2.1321 11.9423C2.0772 12.3296 2.34668 12.6881 2.73401 12.743C2.8887 12.765 3.03654 12.8219 3.16634 12.9098C3.29461 12.9966 3.40196 13.1115 3.48033 13.2458C3.63701 13.5286 3.84742 13.7781 4.09984 13.98C4.3545 14.1838 4.6469 14.3352 4.96026 14.4254C5.26538 14.5133 5.58445 14.5415 5.90006 14.5084C5.9007 14.6784 5.90115 14.8088 5.90115 14.875C5.90115 15.2662 6.20161 15.5833 6.57225 15.5833H10.452C10.8226 15.5833 11.1231 15.2662 11.1231 14.875V12.1901C11.1414 11.886 11.1102 11.5812 11.0314 11.2889C11.0206 11.2487 11.0088 11.2087 10.9962 11.1689C11.0385 11.1584 11.0808 11.1473 11.1231 11.1356C11.7071 10.9747 12.2905 10.7117 12.7917 10.2696C13.656 9.50704 14.1654 8.31435 14.1664 6.56975C14.1771 5.75727 13.9489 4.96605 13.5198 4.3027C13.492 4.25962 13.4633 4.2171 13.4337 4.17513C13.4413 4.1395 13.4485 4.10379 13.4551 4.06801C13.5924 3.3287 13.5146 2.55809 13.2255 1.86054Z" fill="white"/>
</svg>
