<svg width="30" height="30" viewBox="0 0 30 30" fill="none" xmlns="http://www.w3.org/2000/svg">
<path d="M1.79959 0.0292969L4.20217 26.9777L14.9838 29.9705L25.7952 26.9735L28.2004 0.0292969H1.79959ZM23.1887 6.42451L23.0383 8.10006L22.9722 8.84309H22.9613H15H14.9885H10.3245L10.6265 12.2275H14.9885H15H21.7806H22.6713L22.5906 13.115L21.814 21.8165L21.7642 22.3745L15 24.2492V24.2499L14.9848 24.2541L8.21449 22.3746L7.75143 17.1851H9.28061H11.0692L11.3046 19.821L14.9854 20.8151L14.9885 20.8143V20.8139L18.6749 19.8192L19.0583 15.5326H15H14.9885H7.60377L6.79149 6.42451L6.71233 5.53793H14.9885H15H23.2678L23.1887 6.42451Z" fill="white"/>
</svg>
