<svg width="14" height="14" viewBox="0 0 14 14" fill="none" xmlns="http://www.w3.org/2000/svg">
<g clip-path="url(#clip0_4_27)">
<path d="M11.293 0H2.70703C1.21406 0 0 1.21406 0 2.70703V5.56719V11.2984C0 12.7914 1.21406 14.0055 2.70703 14.0055H11.293C12.7859 14.0055 14 12.7914 14 11.2984V5.56172V2.70156C13.9945 1.21406 12.7805 0 11.293 0ZM12.0695 1.61328H12.3812V1.91953V3.98672L10.0133 3.99219L10.0078 1.61875L12.0695 1.61328ZM4.99844 5.56172C5.44687 4.94375 6.17422 4.53359 6.99453 4.53359C7.81484 4.53359 8.54219 4.93828 8.99062 5.56172C9.28594 5.96641 9.45547 6.46406 9.45547 7C9.45547 8.35625 8.35078 9.46641 6.98906 9.46641C5.62734 9.46641 4.53359 8.35625 4.53359 7C4.53359 6.46406 4.70859 5.96641 4.99844 5.56172ZM12.6328 11.293C12.6328 12.0313 12.0312 12.6328 11.293 12.6328H2.70703C1.96875 12.6328 1.36719 12.0313 1.36719 11.293V5.56172H3.45625C3.27578 6.00469 3.17188 6.49141 3.17188 7C3.17188 9.11094 4.88906 10.8281 7 10.8281C9.11094 10.8281 10.8281 9.11094 10.8281 7C10.8281 6.49141 10.7242 6.00469 10.5437 5.56172H12.6328V11.293Z" fill="white"/>
</g>
<defs>
<clipPath id="clip0_4_27">
<rect width="14" height="14" fill="white"/>
</clipPath>
</defs>
</svg>
