<svg width="39" height="32" viewBox="0 0 39 32" fill="none" xmlns="http://www.w3.org/2000/svg">
<rect width="39" height="32" rx="5" fill="white"/>
<g clip-path="url(#clip0_26_16)">
<path d="M16.689 12.3379C16.4766 11.8682 16.3813 11.3203 16.5437 10.8226C16.7059 10.3138 17.0694 9.90561 17.4328 9.52535C18.4447 8.51322 19.6917 7.76958 20.6814 6.74082C21.2293 6.17602 21.6822 5.49945 21.8387 4.72217C21.9673 4.15189 21.9059 3.5648 21.7885 3C22.3141 3.59831 22.4874 4.45381 22.3364 5.22547C22.1743 6.09211 21.6933 6.85812 21.1286 7.51788C20.6758 8.04917 20.1557 8.51883 19.6134 8.95507C18.9816 9.4639 18.361 10.0118 17.964 10.7276C17.6284 11.309 17.5501 12.0247 17.7794 12.6566C18.1541 13.7413 19.0263 14.5465 19.5016 15.5697C18.9759 15.1055 18.4616 14.6247 17.9806 14.116C17.4775 13.5791 17.0022 13.0089 16.689 12.3379ZM19.5407 11.4879C19.4456 12.377 19.9096 13.2157 20.4633 13.8755C20.7316 14.1718 20.9609 14.5353 20.972 14.9491C20.9832 15.5025 20.6703 16.0171 20.2674 16.3804C20.3626 16.3693 20.4297 16.2854 20.508 16.2407C21.1118 15.8548 21.6932 15.3684 21.9896 14.7031C22.1853 14.2502 22.1406 13.7133 21.8835 13.2939C21.5814 12.8019 21.1845 12.3657 20.9497 11.829C20.8209 11.5271 20.7762 11.1748 20.8825 10.8561C21.0224 10.4256 21.3243 10.0733 21.643 9.76577C22.5208 8.93274 23.5832 8.33982 24.6009 7.69133C23.3148 8.06031 22.0456 8.56919 20.9609 9.36884C20.2731 9.88324 19.6358 10.5989 19.5407 11.4879ZM25.6522 15.6928C26.2617 15.7264 26.8598 16.1736 26.9718 16.7887C27.0781 17.3199 26.8209 17.8455 26.4909 18.248C25.9484 18.8966 25.2159 19.3608 24.4781 19.7578C24.4052 19.8023 24.3438 19.8583 24.2878 19.9199C25.2608 19.6738 26.2336 19.3049 27.0221 18.673C27.458 18.3096 27.8439 17.8285 27.9278 17.2526C28.0061 16.7551 27.7994 16.2406 27.4302 15.9108C26.9828 15.5024 26.3512 15.3516 25.7583 15.4299C25.4172 15.4746 25.0427 15.5473 24.8079 15.8325C25.0876 15.7767 25.3613 15.6648 25.6522 15.6928ZM13.5131 17.2918C14.2455 17.4875 15.0004 17.5435 15.7497 17.5938C16.4206 17.6385 17.0917 17.6498 17.7683 17.6441C19.5128 17.6163 21.2684 17.4988 22.9794 17.1186C23.1415 17.0795 23.3205 17.0515 23.466 16.9509C23.7511 16.7663 24.0641 16.6209 24.3717 16.4755C22.9794 16.6992 21.5815 16.8894 20.1725 16.9788C18.7467 17.0683 17.3096 17.1242 15.8783 17.0292C15.4702 16.9901 15.0507 16.9676 14.6705 16.811C14.581 16.7719 14.4579 16.6938 14.5026 16.5762C14.5866 16.4252 14.7543 16.3526 14.8997 16.2743C15.5149 15.9835 16.1858 15.8214 16.84 15.6313C15.716 15.6144 14.5977 15.8995 13.5691 16.3413C13.3397 16.4532 13.0826 16.5426 12.8981 16.7328C12.8252 16.8109 12.8252 16.9454 12.9092 17.0123C13.077 17.1633 13.3005 17.2304 13.5131 17.2918ZM22.5714 18.8296C21.5928 19.0029 20.6085 19.1652 19.6188 19.2154C18.5341 19.2881 17.4494 19.2265 16.3759 19.1147C16.169 19.0867 15.9621 19.0533 15.7776 18.9583C15.6826 18.9023 15.5876 18.8129 15.5932 18.6953C15.6043 18.5108 15.7608 18.3823 15.8727 18.2481C15.5261 18.3711 15.1794 18.4996 14.8886 18.7291C14.7655 18.8241 14.6426 18.975 14.676 19.1427C14.7266 19.3384 14.9166 19.4558 15.0844 19.5452C15.498 19.7578 15.9621 19.8528 16.4152 19.9367C17.5612 20.1213 18.7299 20.1269 19.8817 20.0484C21.1009 19.9534 22.3141 19.7522 23.4939 19.4055C23.1584 19.2546 22.8396 19.0811 22.5714 18.8296ZM16.4262 20.7644C16.1131 20.8538 15.7944 20.9601 15.5372 21.1668C15.4084 21.2674 15.3079 21.441 15.3695 21.6031C15.4478 21.8099 15.6435 21.9331 15.8278 22.0391C16.3088 22.302 16.8511 22.4249 17.3823 22.5201C18.5846 22.7101 19.8202 22.6822 21.0168 22.4698C21.7269 22.3355 22.437 22.1454 23.0968 21.8492C22.6662 21.6702 22.247 21.4688 21.8444 21.2341C21.1455 21.3571 20.4408 21.4858 19.7251 21.5305C18.7803 21.6031 17.8241 21.5248 16.8791 21.4075C16.6554 21.3571 16.3759 21.3348 16.2249 21.139C16.1468 20.9767 16.3256 20.8593 16.4262 20.7644ZM24.0754 24.3595C24.8581 24.1976 25.6466 24.0128 26.3623 23.6495C26.5858 23.5207 26.8598 23.3809 26.9327 23.1127C26.9718 22.8555 26.7034 22.7212 26.5133 22.615C26.6306 22.7494 26.7089 22.945 26.5914 23.1015C26.3957 23.3644 26.0604 23.4649 25.764 23.5656C24.8359 23.8284 23.874 23.9347 22.9179 24.041C20.385 24.2701 17.8352 24.3261 15.3024 24.1136C14.4525 24.0241 13.5856 23.9291 12.7749 23.6272C12.6465 23.5712 12.4507 23.5152 12.4507 23.3418C12.5009 23.1912 12.6465 23.107 12.7749 23.0343C13.3564 22.7381 14.0051 22.5758 14.6537 22.5367C14.4637 22.4248 14.24 22.4138 14.022 22.4194C13.4795 22.4361 12.9483 22.5758 12.434 22.7494C11.9923 22.9113 11.5394 23.0904 11.187 23.4147C11.0472 23.5376 10.9188 23.7724 11.0639 23.9403C11.2877 24.1808 11.6344 24.2422 11.9417 24.3148C13.6639 24.6113 15.4084 24.7788 17.1532 24.8404C19.468 24.9077 21.7996 24.807 24.0754 24.3595ZM26.3679 24.6616C25.3166 24.9971 24.2264 25.1815 23.1415 25.3326C21.2684 25.5674 19.3784 25.64 17.4941 25.5842C16.3479 25.5396 15.2017 25.4613 14.0721 25.271C14.3349 25.4499 14.6593 25.5058 14.9613 25.5897C16.2307 25.8582 17.5333 25.9085 18.8251 25.9476C20.7203 25.9812 22.6159 25.9085 24.4835 25.6121C25.3671 25.4558 26.2561 25.2655 27.0499 24.8517C27.4638 24.6337 27.8833 24.298 27.9556 23.8117C27.5364 24.2589 26.9327 24.4659 26.3679 24.6616Z" fill="#0C2426"/>
</g>
<defs>
<clipPath id="clip0_26_16">
<rect width="23" height="23" fill="white" transform="translate(8 2)"/>
</clipPath>
</defs>
</svg>
