<svg width="30" height="30" viewBox="0 0 30 30" fill="none" xmlns="http://www.w3.org/2000/svg">
<g clip-path="url(#clip0_26_8)">
<path d="M0 3.28125C0 1.46906 1.46907 0 3.28125 0H26.7188C28.5309 0 30 1.46907 30 3.28125V7.03125C30 7.80789 29.3704 8.4375 28.5938 8.4375C27.8171 8.4375 27.1875 7.80789 27.1875 7.03125V3.28125C27.1875 3.02237 26.9777 2.8125 26.7188 2.8125H3.28125C3.02237 2.8125 2.8125 3.02237 2.8125 3.28125V26.7188C2.8125 26.9777 3.02237 27.1875 3.28125 27.1875H28.5938C29.3704 27.1875 30 27.8171 30 28.5938C30 29.3704 29.3704 30 28.5938 30H3.28125C1.46906 30 0 28.5309 0 26.7188V3.28125ZM15.4688 10.7812C16.2454 10.7812 16.875 11.4109 16.875 12.1875V19.6875C16.875 21.5715 16.3575 22.9845 15.2909 23.8732C14.2729 24.7215 13.0385 24.8438 12.1875 24.8438C11.4109 24.8438 10.7812 24.2141 10.7812 23.4375C10.7812 22.6609 11.4109 22.0312 12.1875 22.0312C12.8366 22.0312 13.2427 21.9191 13.4904 21.7127C13.6894 21.5468 14.0625 21.0847 14.0625 19.6875V12.1875C14.0625 11.4109 14.6921 10.7812 15.4688 10.7812ZM21.1419 12.3377C21.927 11.4031 23.1576 10.7812 24.8438 10.7812C26.4092 10.7812 27.5903 11.3169 28.3864 12.159C28.9198 12.7234 28.8947 13.6135 28.3303 14.147C27.7659 14.6805 26.8759 14.6554 26.3424 14.091C26.1364 13.8731 25.7257 13.5938 24.8438 13.5938C23.9049 13.5938 23.4949 13.9094 23.2956 14.1467C23.0501 14.4387 22.9688 14.805 22.9688 15C22.9688 15.195 23.0501 15.5613 23.2956 15.8533C23.4949 16.0906 23.9049 16.4062 24.8438 16.4062C24.9857 16.4062 25.1227 16.4273 25.2517 16.4664C26.4951 16.6434 27.4348 17.1985 28.0768 17.9627C28.8158 18.8424 29.0625 19.8825 29.0625 20.625C29.0625 21.3675 28.8158 22.4076 28.0768 23.2873C27.2917 24.222 26.0612 24.8438 24.375 24.8438C22.8096 24.8438 21.6285 24.3081 20.8324 23.466C20.2989 22.9016 20.3241 22.0116 20.8884 21.4779C21.4528 20.9445 22.3429 20.9696 22.8763 21.534C23.0824 21.7519 23.493 22.0312 24.375 22.0312C25.3138 22.0312 25.7239 21.7155 25.9232 21.4783C26.1686 21.1862 26.25 20.82 26.25 20.625C26.25 20.43 26.1686 20.0638 25.9232 19.7717C25.7239 19.5345 25.3138 19.2188 24.375 19.2188C24.2331 19.2188 24.096 19.1978 23.967 19.1586C22.7237 18.9816 21.7839 18.4265 21.1419 17.6623C20.403 16.7825 20.1562 15.7425 20.1562 15C20.1562 14.2575 20.403 13.2175 21.1419 12.3377Z" fill="white"/>
</g>
<defs>
<clipPath id="clip0_26_8">
<rect width="30" height="30" fill="white"/>
</clipPath>
</defs>
</svg>
