<svg width="21" height="21" viewBox="0 0 21 21" fill="none" xmlns="http://www.w3.org/2000/svg">
<path d="M16.38 3.49997H4.69875C4.54819 3.49292 4.39771 3.51563 4.25593 3.56681C4.11415 3.61799 3.98387 3.69662 3.87251 3.79821C3.76117 3.89981 3.67095 4.02237 3.60703 4.15887C3.54311 4.29537 3.50674 4.44315 3.5 4.59372V16.3012C3.50882 16.6163 3.63795 16.9162 3.86088 17.1391C4.0838 17.362 4.38361 17.4912 4.69875 17.5H16.38C16.6863 17.4864 16.9752 17.3532 17.1846 17.1291C17.3939 16.905 17.5072 16.6078 17.5 16.3012V4.59372C17.5025 4.44716 17.4751 4.30164 17.4193 4.16607C17.3636 4.0305 17.2807 3.90775 17.1758 3.80533C17.071 3.70292 16.9463 3.62302 16.8094 3.57051C16.6726 3.518 16.5265 3.494 16.38 3.49997ZM7.875 15.1725H5.83625V8.93375H7.875V15.1725ZM6.90375 7.98872C6.76148 7.99369 6.61972 7.96917 6.48739 7.91672C6.35505 7.86427 6.23498 7.78502 6.13474 7.68395C6.03449 7.58288 5.95622 7.46218 5.90486 7.32941C5.85349 7.19665 5.83013 7.0547 5.83625 6.91247C5.82996 6.76871 5.85378 6.62523 5.90621 6.49122C5.95863 6.35721 6.03848 6.23564 6.14064 6.1343C6.2428 6.03296 6.36501 5.9541 6.49944 5.90277C6.63387 5.85143 6.77755 5.82877 6.92125 5.83622C7.06352 5.83127 7.20528 5.85578 7.33761 5.90823C7.46995 5.96068 7.59002 6.03992 7.69026 6.141C7.79051 6.24207 7.86878 6.36277 7.92014 6.49554C7.97151 6.6283 7.99487 6.77025 7.98875 6.91247C7.99504 7.05624 7.97121 7.19972 7.91879 7.33373C7.86637 7.46774 7.78652 7.58931 7.68436 7.69065C7.5822 7.79199 7.45999 7.87085 7.32556 7.92218C7.19113 7.97352 7.04745 7.99618 6.90375 7.98872ZM15.1725 15.1725H13.125V11.76C13.125 10.9462 12.8362 10.3863 12.11 10.3863C11.8844 10.3882 11.6649 10.4598 11.4817 10.5914C11.2983 10.723 11.1603 10.9081 11.0862 11.1213C11.0294 11.281 11.0056 11.4507 11.0162 11.62V15.1725H9.00375V8.93375H11.0162V9.80875C11.1952 9.48001 11.4614 9.20719 11.7857 9.02029C12.11 8.83348 12.4796 8.73992 12.8537 8.74997C14.175 8.74997 15.1725 9.625 15.1725 11.4887V15.1725Z" fill="white"/>
</svg>
