<svg width="22" height="22" viewBox="0 0 22 22" fill="none" xmlns="http://www.w3.org/2000/svg">
<path d="M14.2083 15.4916L15.4917 14.2083C15.5833 14.1166 15.6292 14.0097 15.6292 13.8875C15.6292 13.7653 15.5833 13.6583 15.4917 13.5666L12.375 10.4271C12.4361 10.259 12.4819 10.091 12.5125 9.9229C12.5431 9.75484 12.5583 9.56387 12.5583 9.34998C12.5583 8.47915 12.249 7.73435 11.6302 7.1156C11.0115 6.49685 10.2667 6.18748 9.39584 6.18748C9.13611 6.18748 8.87639 6.22185 8.61667 6.2906C8.35695 6.35935 8.10486 6.45484 7.86042 6.57706L10.0146 8.73123L8.73125 10.0146L6.57709 7.8604C6.45486 8.10484 6.35938 8.35692 6.29063 8.61665C6.22188 8.87637 6.1875 9.13609 6.1875 9.39581C6.1875 10.2666 6.49688 11.0114 7.11563 11.6302C7.73438 12.2489 8.47917 12.5583 9.35 12.5583C9.54861 12.5583 9.73577 12.543 9.91146 12.5125C10.0872 12.4819 10.259 12.4361 10.4271 12.375L13.5667 15.4916C13.6583 15.5833 13.7653 15.6291 13.8875 15.6291C14.0097 15.6291 14.1167 15.5833 14.2083 15.4916ZM11 20.1666C9.73195 20.1666 8.54028 19.926 7.425 19.4448C6.30972 18.9635 5.33959 18.3104 4.51459 17.4854C3.68959 16.6604 3.03646 15.6903 2.55521 14.575C2.07396 13.4597 1.83334 12.268 1.83334 11C1.83334 9.73192 2.07396 8.54026 2.55521 7.42498C3.03646 6.3097 3.68959 5.33956 4.51459 4.51456C5.33959 3.68956 6.30972 3.03644 7.425 2.55519C8.54028 2.07394 9.73195 1.83331 11 1.83331C12.2681 1.83331 13.4597 2.07394 14.575 2.55519C15.6903 3.03644 16.6604 3.68956 17.4854 4.51456C18.3104 5.33956 18.9635 6.3097 19.4448 7.42498C19.926 8.54026 20.1667 9.73192 20.1667 11C20.1667 12.268 19.926 13.4597 19.4448 14.575C18.9635 15.6903 18.3104 16.6604 17.4854 17.4854C16.6604 18.3104 15.6903 18.9635 14.575 19.4448C13.4597 19.926 12.2681 20.1666 11 20.1666Z" fill="#56D5E0"/>
</svg>
