<svg width="13" height="14" viewBox="0 0 13 14" fill="none" xmlns="http://www.w3.org/2000/svg">
<path d="M11.2941 1.37565H10.5882V0H9.17647V1.37565H3.52941V0H2.11765V1.37565H1.41176C0.628235 1.37565 0 1.9947 0 2.75131V12.3809C0 13.1375 0.628235 13.7565 1.41176 13.7565H11.2941C12.0706 13.7565 12.7059 13.1375 12.7059 12.3809V2.75131C12.7059 1.9947 12.0706 1.37565 11.2941 1.37565ZM6.35294 3.43913C7.52471 3.43913 8.47059 4.36082 8.47059 5.50261C8.47059 6.64441 7.52471 7.56609 6.35294 7.56609C5.18118 7.56609 4.23529 6.64441 4.23529 5.50261C4.23529 4.36082 5.18118 3.43913 6.35294 3.43913ZM10.5882 11.6931H2.11765V11.0052C2.11765 9.62957 4.94118 8.87296 6.35294 8.87296C7.76471 8.87296 10.5882 9.62957 10.5882 11.0052V11.6931Z" fill="white"/>
</svg>
